<svg width="76" height="54" fill="none" xmlns="http://www.w3.org/2000/svg"><mask id="mask0_56_181" style="mask-type:luminance" maskUnits="userSpaceOnUse" x="6" y="11" width="64" height="35"><path d="M53.039 45.232H22.671c-9.162 0-16.585-7.458-16.585-16.663 0-9.204 7.423-16.662 16.585-16.662H53.04c9.162 0 16.585 7.457 16.585 16.662 0 9.19-7.423 16.663-16.585 16.663Z" fill="#fff"/></mask><g mask="url('#mask0_56_181')"><path d="M74.084 5.71H.129V54h73.955V5.71Z" fill="url('#paint0_linear_56_181')"/><path opacity=".15" d="M0 31.579s4.428-.178 4.766-.13c.338.049 7.31-.372 9.886-.566 2.577-.194 8.277.178 6.892-.663-1.385-.825 6.006-.81 7.89-.874 1.868-.08 6.231-.728 4.766-1.343-1.465-.614 1.755-.372 2.56-1.197.805-.825-7.793-1.86-13.46-2.054-5.669-.194-5.46-.372-5.218-.518.242-.146 1.224-.372-1.755-.809-2.963-.437-2.463-.954-2.093-1.1.692-.275.386-.615-.145-.793-2.238-.727-4.605-.501-6.924-.42-.386.016-.757.032-1.143.032-.241 0-.483.016-.725.016-.402 0-5.2 0-5.2-.145L0 31.579Zm27.357-3.835c.113-.258.724-.34.934-.372.595-.08 1.175.195 1.787.195.515 0 1.111-.21 1.61-.098.354.081.5.26.129.453a2.52 2.52 0 0 1-1.079.26c-.531 0-.966-.211-1.513-.146-.065 0-.145.016-.21.016-.418.048-.87.08-1.272 0-.145-.032-.467-.097-.386-.308ZM7.617 29.54c0-.194.579-.388.724-.42.756-.275 1.562-.324 2.334-.486.403-.08.805-.145 1.208-.13.58.033 1.127.195 1.707.179.644-.016 1.288-.162 1.948-.178.177 0 2.834-.049 2.721.437-.064.323-1.384.242-1.594.259-.531.016-1.11-.049-1.626.113-.467.13-.886.388-1.369.453-.547.08-1.11.048-1.658.016a37.85 37.85 0 0 0-1.353-.081c-.354-.016-3.027.226-3.043-.162ZM2.414 22.6h1.369c2.286.049 3.993.049 3.413.437-.58.388-.772.582 1.224.534 1.997-.049 5.523.275 4.364.63-1.176.373-2.383.438-1.61.518.772.081 1.723.194 1.272.421-.467.226.145.275 1.272.194 1.127-.08 7.793.42 7.036.858-.757.436-5.313-.098-4.702.372.612.469-.966.323-2.077.436-1.095.13-4.428.615-6.505.292-2.06-.324-2.141-.178-3.01-.178-.87 0-2.014-.049-2.014-.049V22.6h-.032Z" fill="#fff"/><path d="m9.339 32.986-.016.21-.177-.065.177.065-.113.162.129-.162.113.162-.113-.162.193-.065-.193.065v-.21Z" fill="url('#paint1_radial_56_181')"/><path d="M9.017 33.196c0 .178.145.324.322.324a.324.324 0 0 0 0-.647c-.177-.016-.322.13-.322.323Z" fill="url('#paint2_radial_56_181')"/><path d="M9.162 33.197c0 .097.08.177.177.177a.18.18 0 0 0 .177-.178.179.179 0 0 0-.177-.177.179.179 0 0 0-.177.178Z" fill="url('#paint3_radial_56_181')"/><path d="M24.088 39.65v.195l-.193-.048.193.064-.113.162.113-.162.113.162-.113-.162.193-.064-.193.048v-.194Z" fill="url('#paint4_radial_56_181')"/><path d="M23.766 39.845c0 .178.145.324.322.324a.324.324 0 0 0 0-.647.324.324 0 0 0-.322.323Z" fill="url('#paint5_radial_56_181')"/><path d="M23.927 39.845c0 .097.08.178.177.178a.18.18 0 0 0 .177-.178.18.18 0 0 0-.177-.178c-.113.016-.177.097-.177.178Z" fill="url('#paint6_radial_56_181')"/><path d="m27.711 16.97-.016.194-.177-.048.177.064-.113.162.129-.162.113.162-.113-.162.193-.064-.193.048v-.194Z" fill="url('#paint7_radial_56_181')"/><path d="M27.389 17.164c0 .178.145.324.322.324a.324.324 0 0 0 0-.647.324.324 0 0 0-.322.323Z" fill="url('#paint8_radial_56_181')"/><path d="M27.534 17.164c0 .097.08.178.177.178a.18.18 0 0 0 .177-.178.18.18 0 0 0-.177-.178c-.097.017-.177.081-.177.178Z" fill="url('#paint9_radial_56_181')"/><path d="M32.783 24.396v.21l-.193-.064.193.064-.113.162.113-.162.129.162-.113-.162.177-.064-.193.064v-.21Z" fill="url('#paint10_radial_56_181')"/><path d="M32.461 24.606c0 .178.145.324.322.324a.324.324 0 0 0 0-.647.324.324 0 0 0-.322.323Z" fill="url('#paint11_radial_56_181')"/><path d="M32.622 24.606c0 .097.08.178.177.178a.18.18 0 0 0 .177-.178.18.18 0 0 0-.177-.178.18.18 0 0 0-.177.178Z" fill="url('#paint12_radial_56_181')"/><path d="M40.625 16.598v.21l-.194-.064.194.064-.113.162.113-.162.112.162-.112-.162.193-.064-.193.064v-.21Z" fill="url('#paint13_radial_56_181')"/><path d="M40.303 16.809c0 .178.145.323.322.323a.324.324 0 0 0 0-.647c-.178-.016-.322.13-.322.324Z" fill="url('#paint14_radial_56_181')"/><path d="M40.464 16.809c0 .097.08.178.177.178a.18.18 0 0 0 .177-.178.179.179 0 0 0-.177-.178c-.113 0-.177.08-.177.178Z" fill="url('#paint15_radial_56_181')"/><path d="m27.389 30.56-.016.21-.177-.065.177.064-.113.162.129-.162.113.162-.113-.162.193-.064-.193.064v-.21Z" fill="url('#paint16_radial_56_181')"/><path d="M27.067 30.77c0 .178.145.323.322.323a.324.324 0 0 0 0-.647c-.177-.016-.322.13-.322.324Z" fill="url('#paint17_radial_56_181')"/><path d="M27.212 30.77c0 .097.08.178.177.178a.18.18 0 0 0 .177-.178.18.18 0 0 0-.177-.178.18.18 0 0 0-.177.178Z" fill="url('#paint18_radial_56_181')"/><path d="M40.947 38v.21l-.194-.064.194.065-.113.162.113-.162.128.162-.112-.162.177-.065-.193.065V38Z" fill="url('#paint19_radial_56_181')"/><path d="M40.625 38.211c0 .178.145.324.322.324a.324.324 0 0 0 0-.647c-.178-.017-.322.129-.322.323Z" fill="url('#paint20_radial_56_181')"/><path d="M40.786 38.211c0 .097.08.178.177.178a.18.18 0 0 0 .177-.178.18.18 0 0 0-.177-.178.18.18 0 0 0-.177.178Z" fill="url('#paint21_radial_56_181')"/><path d="M67.385 41.074v.21l-.193-.064.194.065-.113.161.112-.161.13.161-.113-.161.177-.065-.177.065-.017-.21Z" fill="url('#paint22_radial_56_181')"/><path d="M67.064 41.285c0 .178.145.323.322.323a.324.324 0 0 0 0-.647c-.177-.016-.322.13-.322.324Z" fill="url('#paint23_radial_56_181')"/><path d="M67.225 41.285c0 .097.08.178.177.178a.18.18 0 0 0 .177-.178.18.18 0 0 0-.177-.178.18.18 0 0 0-.177.178Z" fill="url('#paint24_radial_56_181')"/><path d="M69.495 33.002v.21l-.193-.065.193.065-.113.162.113-.162.129.162-.13-.162.194-.065-.193.065v-.21Z" fill="url('#paint25_radial_56_181')"/><path d="M69.173 33.212c0 .178.145.324.322.324a.324.324 0 0 0 0-.647c-.177-.016-.322.13-.322.323Z" fill="url('#paint26_radial_56_181')"/><path d="M69.334 33.213c0 .097.08.178.177.178a.18.18 0 0 0 .177-.178.18.18 0 0 0-.177-.178c-.113 0-.177.08-.177.178Z" fill="url('#paint27_radial_56_181')"/><path d="m62.539 17.456-.016.194-.177-.049.177.065-.113.162.129-.162.113.162-.113-.162.193-.065-.193.049v-.194Z" fill="url('#paint28_radial_56_181')"/><path d="M62.217 17.65c0 .178.145.323.322.323a.324.324 0 0 0 0-.647.324.324 0 0 0-.322.324Z" fill="url('#paint29_radial_56_181')"/><path d="M62.362 17.65c0 .097.08.178.177.178a.18.18 0 0 0 .177-.178.18.18 0 0 0-.177-.178c-.097.016-.177.08-.177.178Z" fill="url('#paint30_radial_56_181')"/><path d="m7.616 16.809-.016.194-.177-.065.177.065-.113.162.13-.146.112.146-.113-.162.193-.065-.193.065v-.194Z" fill="url('#paint31_radial_56_181')"/><path d="M7.294 17.003c0 .178.145.323.322.323a.324.324 0 0 0 0-.647.324.324 0 0 0-.322.324Z" fill="url('#paint32_radial_56_181')"/><path d="M7.439 17.003c0 .097.08.178.177.178a.18.18 0 0 0 .177-.178.18.18 0 0 0-.177-.178.18.18 0 0 0-.177.178Z" fill="url('#paint33_radial_56_181')"/><path d="m17.664 21.112-.017.21-.177-.065.178.065-.113.162.129-.162.112.162-.112-.162.193-.065-.193.065v-.21Z" fill="url('#paint34_radial_56_181')"/><path d="M17.342 21.322c0 .178.145.324.322.324a.324.324 0 0 0 0-.648.324.324 0 0 0-.322.324Z" fill="url('#paint35_radial_56_181')"/><path d="M17.486 21.322c0 .097.081.178.178.178.096 0 .177-.08.177-.178a.18.18 0 0 0-.177-.178.18.18 0 0 0-.178.178Z" fill="url('#paint36_radial_56_181')"/><path d="m46.582 29.314-.016.21-.177-.065.177.065-.113.162.13-.162.112.162-.113-.162.194-.065-.194.049v-.194Z" fill="url('#paint37_radial_56_181')"/><path d="M46.26 29.508c0 .178.145.323.322.323a.324.324 0 0 0 0-.647.324.324 0 0 0-.322.324Z" fill="url('#paint38_radial_56_181')"/><path d="M46.405 29.508c0 .097.08.178.177.178a.18.18 0 0 0 .177-.178.18.18 0 0 0-.177-.178c-.096 0-.177.097-.177.178Z" fill="url('#paint39_radial_56_181')"/></g><mask id="mask1_56_181" style="mask-type:luminance" maskUnits="userSpaceOnUse" x="6" y="11" width="64" height="35"><path d="M53.039 45.232H22.671c-9.162 0-16.585-7.458-16.585-16.663 0-9.204 7.423-16.662 16.585-16.662H53.04c9.162 0 16.585 7.457 16.585 16.662 0 9.19-7.423 16.663-16.585 16.663Z" fill="#fff"/></mask><g mask="url('#mask1_56_181')"><path d="M74.261 29.491s-1.079-.064-1.497 1.068c0 0-.322-1.391-1.949-1.909-1.61-.501.725-1.342-2.898-1.715-3.623-.372-3.832 1.376-2.528 1.812 1.32.437-4.96.21-2.383 1.796 2.592 1.602-4.331-.582-3.462 1.57.87 2.15-1.546.743-2.85.679-1.304-.065-2.56.194-2.576 1.44-.016 1.229-2.367.032-3.204 1.116-.838 1.084-1.514.792-2.416.21-.901-.583-2.045.016-3.123.518-1.08.501-1.675-.308-3.559.032-1.884.34-3.703.485-4.814.566-1.111.081-2.448-.21-3.156.356 0 0 .596-.275 2.335 0 1.739.275 1.819.663 3.284.47 1.465-.195 2.737-.243 3.494.048 0 0-1.03-.55-2.77-.518-1.754.032.903-.501 2.754-.47 1.852.033 2.11.325 3.366.13 1.255-.194 3.622.728 1.207.874-2.415.145-3.204.324-4.235.55-1.03.226-2.592-.226-2.592-.226s1.272.922 3.075.566c1.804-.356 3.768-.291 5.378-.178 1.61.097 2.963-.744 5.733-.275 2.785.469 5.667 1.197 7.857.776 2.19-.42 4.412.065 4.976.21 0 0-2.867-.63-5.604-.517-2.72.113-2.302-.809-1.207-.663 1.078.129 2.705.533 4.138.21 0 0-1.965-.065-3.204-1.02-1.256-.954 1.545.146 3.075.438 1.53.29 4.25.711 6.006.307 0 0-1.74.08-2.834-.744-1.095-.825 1.336-.017 2.48-.017 1.143 0 2.882-.355 3.703-.436V29.49Z" fill="#fff"/></g><g opacity=".8" clip-path="url('#clip0_56_181')"><path d="M22.117 41.227c6.873 0 12.445-5.73 12.445-12.798S28.99 15.631 22.117 15.631 9.673 21.361 9.673 28.43s5.571 12.798 12.444 12.798Z" fill="url('#paint40_linear_56_181')"/><path opacity=".1" d="M14.985 21.213c-1.738 4.451.705 9.661 5.476 11.634 4.772 1.973 10.051-.034 11.789-4.485 1.738-4.451-.705-9.662-5.476-11.634-4.755-1.973-10.035.033-11.789 4.485Z" fill="#fff"/><path opacity=".2" d="M20.051 19.543c-1.032 2.664.427 5.784 3.28 6.964 2.852 1.18 6.017-.017 7.05-2.681 1.05-2.664-.426-5.784-3.28-6.964-2.852-1.18-6 .017-7.05 2.681Z" fill="#fff"/><path opacity=".5" d="M11.558 21.65a13.596 13.596 0 0 0-.41 3.306c0 7.065 5.575 12.798 12.445 12.798 4.443 0 8.346-2.412 10.543-6.02-1.41 5.463-6.264 9.493-12.019 9.493-6.87-.017-12.444-5.733-12.444-12.798 0-2.495.688-4.822 1.885-6.778Z" fill="#D9D9D9"/><path opacity=".5" d="M31.545 28.43c-.295.539-.721 2.124 0 2.495.721.37 1.426-1.113 1.426-2.277-.016-1.18-.606-1.686-1.426-.219ZM18.264 30.352c.509.573.525 1.264.197 1.568-.344.303-1.082 0-1.541-.928-.46-.944-.033-2.175 1.344-.64ZM25.872 19.863c.41.473 1.197.59 1.066-.522-.148-1.113-2.099-.692-1.066.522ZM28.692 35.309c-.131-.304-.64-.169-.721.354-.082.523 1.18.657.721-.354Z" fill="#D9D9D9"/><path d="M16.05 34.685c.28.202.345.893-.245.472-.607-.422-.18-.776.246-.472ZM13.05 29.458c.41.607-.36 1.871-.803.742-.394-.995.033-1.889.803-.742ZM13.345 25.242c-.18-.1-.426.169-.196.49.262.303.688-.237.196-.49ZM21.215 23.826c-.245-.303-1.082.084-.672.472.672.607 1.23.22.672-.472ZM17.674 20.808c-.164-.152-.344.337-.164.421.18.102.525-.1.164-.421ZM24.839 19.661c.18.084.213.472-.197.303-.41-.168-.18-.488.197-.303ZM27.413 24.349c.262.118.05.421-.328.337-.377-.101-.065-.506.328-.337ZM28.266 32.391c.115.135-.082.422-.295.186-.213-.236.098-.405.295-.186ZM21.052 26.558c.18.219-.05.303-.23.168-.18-.135.05-.387.23-.168ZM32.955 25.31c.164.219-.066.489-.295.202-.213-.27.131-.422.295-.203ZM19.69 32.02s-.032-.05-.081-.117l-.099-.101c-.033-.034-.082-.068-.13-.102-.017-.017-.05-.033-.066-.05-.017-.017-.05-.017-.066-.034a1.112 1.112 0 0 1-.131-.05c-.082-.017-.131-.034-.131-.034s.049.034.098.084c.033.017.066.05.115.084.049.017.082.05.131.085.05.033.082.05.131.084.05.017.082.05.115.067s.066.034.082.051c.016.034.033.034.033.034ZM19.33 32.678s-.016-.067-.066-.151c-.016-.017-.032-.051-.049-.068-.016-.017-.033-.05-.049-.067-.05-.05-.082-.102-.148-.135a.289.289 0 0 1-.082-.068c-.032-.017-.049-.033-.081-.05a.483.483 0 0 0-.165-.068c-.098-.033-.163-.033-.163-.033s.049.05.13.1c.05.018.083.068.132.102.05.034.098.067.147.118.05.034.099.084.148.118.05.034.082.084.115.118l.082.084c.033-.017.049 0 .049 0ZM32.053 26.625v.152c0 .1.017.219.066.337a.757.757 0 0 0 .164.303c.065.068.114.102.114.102s0-.017-.016-.034c0-.017-.016-.017-.016-.034s-.017-.034-.033-.05c-.033-.085-.082-.186-.115-.304s-.082-.236-.098-.32a.633.633 0 0 1-.066-.152ZM31.61 27.08s-.016.05-.032.135c0 .084 0 .202.049.303.016.034.016.051.033.085.016.034.032.05.049.067.033.05.066.084.098.118l.115.085s-.016-.051-.066-.119c-.016-.033-.032-.084-.065-.117a.51.51 0 0 0-.066-.135l-.049-.152c-.016-.05-.033-.084-.033-.135-.016-.034-.016-.067-.032-.101v-.034ZM30.463 28.514s.065.017.147.034c.05 0 .099.016.148.033.033 0 .05.017.082.017.033 0 .05.017.082.017.033 0 .05.017.082.017.033.017.05.017.082.017a130.44 130.44 0 0 0 .295.1l-.115-.117c-.033-.034-.082-.05-.13-.085-.05-.033-.116-.05-.181-.067-.115-.034-.246-.034-.345-.034-.082.034-.147.068-.147.068ZM31.151 29.778s-.016 0-.032-.017c-.017 0-.033 0-.05-.017h-.065c-.05 0-.099 0-.148.034-.033.017-.065.017-.082.034-.033.016-.049.033-.082.05-.049.034-.098.068-.147.118a.314.314 0 0 0-.099.118c-.049.068-.082.135-.082.135s.05-.034.132-.084l.049-.05c.016-.018.049-.035.065-.051.017-.017.05-.034.066-.05.016-.018.05-.035.066-.052.049-.033.098-.067.147-.084.017-.017.05-.017.066-.034.016 0 .049-.016.065-.016.017-.017.033-.017.05-.017.016 0 .032-.017.049-.017.016.017.032 0 .032 0ZM31.233 30.554s-.049 0-.13.017a.65.65 0 0 0-.263.134c-.033.034-.082.068-.115.119-.033.05-.065.084-.065.134-.033.085-.033.135-.033.135s.033-.05.082-.1c.016-.035.065-.068.082-.102l.049-.05.05-.051c.015-.017.032-.034.065-.05a.227.227 0 0 1 .065-.051c.033-.034.082-.051.115-.068.033-.017.066-.05.082-.05 0-.017.016-.017.016-.017ZM31.61 30.941s-.049.034-.114.102c-.033.033-.066.067-.099.118-.016.016-.032.05-.049.067-.016.034-.032.05-.049.084-.033.05-.05.118-.066.169-.016.034-.016.05-.016.084s-.016.05-.016.068V31.785s0-.017.016-.034c0-.017.017-.034.017-.05 0-.018 0-.035.016-.051.016-.017.016-.034.033-.068.016-.017.016-.05.032-.067.033-.05.05-.102.082-.152.033-.05.05-.101.082-.152.017-.05.05-.101.066-.135l.066-.135Z" fill="#D9D9D9"/></g><defs><radialGradient id="paint1_radial_56_181" cx="0" cy="0" r="1" gradientUnits="userSpaceOnUse" gradientTransform="matrix(-.18824 0 0 -.18913 9.336 33.171)"><stop stop-color="#fff"/><stop offset=".994" stop-color="#fff"/></radialGradient><radialGradient id="paint2_radial_56_181" cx="0" cy="0" r="1" gradientUnits="userSpaceOnUse" gradientTransform="matrix(-.32506 0 0 -.32659 9.34 33.188)"><stop stop-color="#fff"/><stop offset=".103" stop-color="#F9F9FC"/><stop offset=".247" stop-color="#E7E7F2"/><stop offset=".414" stop-color="#C9CAE3"/><stop offset=".599" stop-color="#A0A1CD"/><stop offset=".799" stop-color="#6B6DB2"/><stop offset="1" stop-color="#2E3192"/></radialGradient><radialGradient id="paint3_radial_56_181" cx="0" cy="0" r="1" gradientUnits="userSpaceOnUse" gradientTransform="matrix(-.17026 0 0 -.17106 9.34 33.188)"><stop stop-color="#fff"/><stop offset=".103" stop-color="#F9F9FC"/><stop offset=".247" stop-color="#E7E7F2"/><stop offset=".414" stop-color="#C9CAE3"/><stop offset=".599" stop-color="#A0A1CD"/><stop offset=".799" stop-color="#6B6DB2"/><stop offset="1" stop-color="#2E3192"/></radialGradient><radialGradient id="paint4_radial_56_181" cx="0" cy="0" r="1" gradientUnits="userSpaceOnUse" gradientTransform="matrix(-.18825 0 0 -.18913 24.09 39.834)"><stop stop-color="#fff"/><stop offset=".994" stop-color="#fff"/></radialGradient><radialGradient id="paint5_radial_56_181" cx="0" cy="0" r="1" gradientUnits="userSpaceOnUse" gradientTransform="matrix(-.32512 0 0 -.32665 24.092 39.85)"><stop stop-color="#fff"/><stop offset=".103" stop-color="#F9F9FC"/><stop offset=".247" stop-color="#E7E7F2"/><stop offset=".414" stop-color="#C9CAE3"/><stop offset=".599" stop-color="#A0A1CD"/><stop offset=".799" stop-color="#6B6DB2"/><stop offset="1" stop-color="#2E3192"/></radialGradient><radialGradient id="paint6_radial_56_181" cx="0" cy="0" r="1" gradientUnits="userSpaceOnUse" gradientTransform="matrix(-.17026 0 0 -.17106 24.092 39.85)"><stop stop-color="#fff"/><stop offset=".103" stop-color="#F9F9FC"/><stop offset=".247" stop-color="#E7E7F2"/><stop offset=".414" stop-color="#C9CAE3"/><stop offset=".599" stop-color="#A0A1CD"/><stop offset=".799" stop-color="#6B6DB2"/><stop offset="1" stop-color="#2E3192"/></radialGradient><radialGradient id="paint7_radial_56_181" cx="0" cy="0" r="1" gradientUnits="userSpaceOnUse" gradientTransform="matrix(-.18836 0 0 -.18924 27.706 17.152)"><stop stop-color="#fff"/><stop offset=".994" stop-color="#fff"/></radialGradient><radialGradient id="paint8_radial_56_181" cx="0" cy="0" r="1" gradientUnits="userSpaceOnUse" gradientTransform="matrix(-.32512 0 0 -.32665 27.71 17.169)"><stop stop-color="#fff"/><stop offset=".103" stop-color="#F9F9FC"/><stop offset=".247" stop-color="#E7E7F2"/><stop offset=".414" stop-color="#C9CAE3"/><stop offset=".599" stop-color="#A0A1CD"/><stop offset=".799" stop-color="#6B6DB2"/><stop offset="1" stop-color="#2E3192"/></radialGradient><radialGradient id="paint9_radial_56_181" cx="0" cy="0" r="1" gradientUnits="userSpaceOnUse" gradientTransform="matrix(-.17039 0 0 -.17119 27.71 17.17)"><stop stop-color="#fff"/><stop offset=".103" stop-color="#F9F9FC"/><stop offset=".247" stop-color="#E7E7F2"/><stop offset=".414" stop-color="#C9CAE3"/><stop offset=".599" stop-color="#A0A1CD"/><stop offset=".799" stop-color="#6B6DB2"/><stop offset="1" stop-color="#2E3192"/></radialGradient><radialGradient id="paint10_radial_56_181" cx="0" cy="0" r="1" gradientUnits="userSpaceOnUse" gradientTransform="matrix(-.18825 0 0 -.18913 32.787 24.585)"><stop stop-color="#fff"/><stop offset=".994" stop-color="#fff"/></radialGradient><radialGradient id="paint11_radial_56_181" cx="0" cy="0" r="1" gradientUnits="userSpaceOnUse" gradientTransform="matrix(-.32506 0 0 -.32659 32.789 24.602)"><stop stop-color="#fff"/><stop offset=".103" stop-color="#F9F9FC"/><stop offset=".247" stop-color="#E7E7F2"/><stop offset=".414" stop-color="#C9CAE3"/><stop offset=".599" stop-color="#A0A1CD"/><stop offset=".799" stop-color="#6B6DB2"/><stop offset="1" stop-color="#2E3192"/></radialGradient><radialGradient id="paint12_radial_56_181" cx="0" cy="0" r="1" gradientUnits="userSpaceOnUse" gradientTransform="matrix(-.17026 0 0 -.17106 32.79 24.602)"><stop stop-color="#fff"/><stop offset=".103" stop-color="#F9F9FC"/><stop offset=".247" stop-color="#E7E7F2"/><stop offset=".414" stop-color="#C9CAE3"/><stop offset=".599" stop-color="#A0A1CD"/><stop offset=".799" stop-color="#6B6DB2"/><stop offset="1" stop-color="#2E3192"/></radialGradient><radialGradient id="paint13_radial_56_181" cx="0" cy="0" r="1" gradientUnits="userSpaceOnUse" gradientTransform="matrix(-.18818 0 0 -.18907 40.624 16.784)"><stop stop-color="#fff"/><stop offset=".994" stop-color="#fff"/></radialGradient><radialGradient id="paint14_radial_56_181" cx="0" cy="0" r="1" gradientUnits="userSpaceOnUse" gradientTransform="matrix(-.32512 0 0 -.32665 40.627 16.8)"><stop stop-color="#fff"/><stop offset=".103" stop-color="#F9F9FC"/><stop offset=".247" stop-color="#E7E7F2"/><stop offset=".414" stop-color="#C9CAE3"/><stop offset=".599" stop-color="#A0A1CD"/><stop offset=".799" stop-color="#6B6DB2"/><stop offset="1" stop-color="#2E3192"/></radialGradient><radialGradient id="paint15_radial_56_181" cx="0" cy="0" r="1" gradientUnits="userSpaceOnUse" gradientTransform="matrix(-.17039 0 0 -.17119 40.627 16.801)"><stop stop-color="#fff"/><stop offset=".103" stop-color="#F9F9FC"/><stop offset=".247" stop-color="#E7E7F2"/><stop offset=".414" stop-color="#C9CAE3"/><stop offset=".599" stop-color="#A0A1CD"/><stop offset=".799" stop-color="#6B6DB2"/><stop offset="1" stop-color="#2E3192"/></radialGradient><radialGradient id="paint16_radial_56_181" cx="0" cy="0" r="1" gradientUnits="userSpaceOnUse" gradientTransform="matrix(-.18831 0 0 -.1892 27.381 30.747)"><stop stop-color="#fff"/><stop offset=".994" stop-color="#fff"/></radialGradient><radialGradient id="paint17_radial_56_181" cx="0" cy="0" r="1" gradientUnits="userSpaceOnUse" gradientTransform="matrix(-.325 0 0 -.32652 27.384 30.763)"><stop stop-color="#fff"/><stop offset=".103" stop-color="#F9F9FC"/><stop offset=".247" stop-color="#E7E7F2"/><stop offset=".414" stop-color="#C9CAE3"/><stop offset=".599" stop-color="#A0A1CD"/><stop offset=".799" stop-color="#6B6DB2"/><stop offset="1" stop-color="#2E3192"/></radialGradient><radialGradient id="paint18_radial_56_181" cx="0" cy="0" r="1" gradientUnits="userSpaceOnUse" gradientTransform="matrix(-.17026 0 0 -.17106 27.384 30.764)"><stop stop-color="#fff"/><stop offset=".103" stop-color="#F9F9FC"/><stop offset=".247" stop-color="#E7E7F2"/><stop offset=".414" stop-color="#C9CAE3"/><stop offset=".599" stop-color="#A0A1CD"/><stop offset=".799" stop-color="#6B6DB2"/><stop offset="1" stop-color="#2E3192"/></radialGradient><radialGradient id="paint19_radial_56_181" cx="0" cy="0" r="1" gradientUnits="userSpaceOnUse" gradientTransform="matrix(-.18805 0 0 -.18894 40.95 38.188)"><stop stop-color="#fff"/><stop offset=".994" stop-color="#fff"/></radialGradient><radialGradient id="paint20_radial_56_181" cx="0" cy="0" r="1" gradientUnits="userSpaceOnUse" gradientTransform="matrix(-.325 0 0 -.32652 40.952 38.205)"><stop stop-color="#fff"/><stop offset=".103" stop-color="#F9F9FC"/><stop offset=".247" stop-color="#E7E7F2"/><stop offset=".414" stop-color="#C9CAE3"/><stop offset=".599" stop-color="#A0A1CD"/><stop offset=".799" stop-color="#6B6DB2"/><stop offset="1" stop-color="#2E3192"/></radialGradient><radialGradient id="paint21_radial_56_181" cx="0" cy="0" r="1" gradientUnits="userSpaceOnUse" gradientTransform="matrix(-.17044 0 0 -.17124 40.952 38.205)"><stop stop-color="#fff"/><stop offset=".103" stop-color="#F9F9FC"/><stop offset=".247" stop-color="#E7E7F2"/><stop offset=".414" stop-color="#C9CAE3"/><stop offset=".599" stop-color="#A0A1CD"/><stop offset=".799" stop-color="#6B6DB2"/><stop offset="1" stop-color="#2E3192"/></radialGradient><radialGradient id="paint22_radial_56_181" cx="0" cy="0" r="1" gradientUnits="userSpaceOnUse" gradientTransform="matrix(-.18836 0 0 -.18924 67.392 41.261)"><stop stop-color="#fff"/><stop offset=".994" stop-color="#fff"/></radialGradient><radialGradient id="paint23_radial_56_181" cx="0" cy="0" r="1" gradientUnits="userSpaceOnUse" gradientTransform="matrix(-.32501 0 0 -.32654 67.394 41.278)"><stop stop-color="#fff"/><stop offset=".103" stop-color="#F9F9FC"/><stop offset=".247" stop-color="#E7E7F2"/><stop offset=".414" stop-color="#C9CAE3"/><stop offset=".599" stop-color="#A0A1CD"/><stop offset=".799" stop-color="#6B6DB2"/><stop offset="1" stop-color="#2E3192"/></radialGradient><radialGradient id="paint24_radial_56_181" cx="0" cy="0" r="1" gradientUnits="userSpaceOnUse" gradientTransform="matrix(-.17033 0 0 -.17112 67.394 41.279)"><stop stop-color="#fff"/><stop offset=".103" stop-color="#F9F9FC"/><stop offset=".247" stop-color="#E7E7F2"/><stop offset=".414" stop-color="#C9CAE3"/><stop offset=".599" stop-color="#A0A1CD"/><stop offset=".799" stop-color="#6B6DB2"/><stop offset="1" stop-color="#2E3192"/></radialGradient><radialGradient id="paint25_radial_56_181" cx="0" cy="0" r="1" gradientUnits="userSpaceOnUse" gradientTransform="matrix(-.18836 0 0 -.18924 69.496 33.188)"><stop stop-color="#fff"/><stop offset=".994" stop-color="#fff"/></radialGradient><radialGradient id="paint26_radial_56_181" cx="0" cy="0" r="1" gradientUnits="userSpaceOnUse" gradientTransform="matrix(-.32512 0 0 -.32665 69.499 33.205)"><stop stop-color="#fff"/><stop offset=".103" stop-color="#F9F9FC"/><stop offset=".247" stop-color="#E7E7F2"/><stop offset=".414" stop-color="#C9CAE3"/><stop offset=".599" stop-color="#A0A1CD"/><stop offset=".799" stop-color="#6B6DB2"/><stop offset="1" stop-color="#2E3192"/></radialGradient><radialGradient id="paint27_radial_56_181" cx="0" cy="0" r="1" gradientUnits="userSpaceOnUse" gradientTransform="matrix(-.17037 0 0 -.17117 69.499 33.205)"><stop stop-color="#fff"/><stop offset=".103" stop-color="#F9F9FC"/><stop offset=".247" stop-color="#E7E7F2"/><stop offset=".414" stop-color="#C9CAE3"/><stop offset=".599" stop-color="#A0A1CD"/><stop offset=".799" stop-color="#6B6DB2"/><stop offset="1" stop-color="#2E3192"/></radialGradient><radialGradient id="paint28_radial_56_181" cx="0" cy="0" r="1" gradientUnits="userSpaceOnUse" gradientTransform="matrix(-.1883 0 0 -.1892 62.534 17.638)"><stop stop-color="#fff"/><stop offset=".994" stop-color="#fff"/></radialGradient><radialGradient id="paint29_radial_56_181" cx="0" cy="0" r="1" gradientUnits="userSpaceOnUse" gradientTransform="matrix(-.32501 0 0 -.32654 62.537 17.655)"><stop stop-color="#fff"/><stop offset=".103" stop-color="#F9F9FC"/><stop offset=".247" stop-color="#E7E7F2"/><stop offset=".414" stop-color="#C9CAE3"/><stop offset=".599" stop-color="#A0A1CD"/><stop offset=".799" stop-color="#6B6DB2"/><stop offset="1" stop-color="#2E3192"/></radialGradient><radialGradient id="paint30_radial_56_181" cx="0" cy="0" r="1" gradientUnits="userSpaceOnUse" gradientTransform="matrix(-.17026 0 0 -.17106 62.537 17.654)"><stop stop-color="#fff"/><stop offset=".103" stop-color="#F9F9FC"/><stop offset=".247" stop-color="#E7E7F2"/><stop offset=".414" stop-color="#C9CAE3"/><stop offset=".599" stop-color="#A0A1CD"/><stop offset=".799" stop-color="#6B6DB2"/><stop offset="1" stop-color="#2E3192"/></radialGradient><radialGradient id="paint31_radial_56_181" cx="0" cy="0" r="1" gradientUnits="userSpaceOnUse" gradientTransform="matrix(-.18824 0 0 -.18913 7.614 16.985)"><stop stop-color="#fff"/><stop offset=".994" stop-color="#fff"/></radialGradient><radialGradient id="paint32_radial_56_181" cx="0" cy="0" r="1" gradientUnits="userSpaceOnUse" gradientTransform="matrix(-.32506 0 0 -.32659 7.617 17.002)"><stop stop-color="#fff"/><stop offset=".103" stop-color="#F9F9FC"/><stop offset=".247" stop-color="#E7E7F2"/><stop offset=".414" stop-color="#C9CAE3"/><stop offset=".599" stop-color="#A0A1CD"/><stop offset=".799" stop-color="#6B6DB2"/><stop offset="1" stop-color="#2E3192"/></radialGradient><radialGradient id="paint33_radial_56_181" cx="0" cy="0" r="1" gradientUnits="userSpaceOnUse" gradientTransform="matrix(-.17026 0 0 -.17106 7.616 17.002)"><stop stop-color="#fff"/><stop offset=".103" stop-color="#F9F9FC"/><stop offset=".247" stop-color="#E7E7F2"/><stop offset=".414" stop-color="#C9CAE3"/><stop offset=".599" stop-color="#A0A1CD"/><stop offset=".799" stop-color="#6B6DB2"/><stop offset="1" stop-color="#2E3192"/></radialGradient><radialGradient id="paint34_radial_56_181" cx="0" cy="0" r="1" gradientUnits="userSpaceOnUse" gradientTransform="matrix(-.18812 0 0 -.189 17.658 21.303)"><stop stop-color="#fff"/><stop offset=".994" stop-color="#fff"/></radialGradient><radialGradient id="paint35_radial_56_181" cx="0" cy="0" r="1" gradientUnits="userSpaceOnUse" gradientTransform="matrix(-.32519 0 0 -.32672 17.661 21.32)"><stop stop-color="#fff"/><stop offset=".103" stop-color="#F9F9FC"/><stop offset=".247" stop-color="#E7E7F2"/><stop offset=".414" stop-color="#C9CAE3"/><stop offset=".599" stop-color="#A0A1CD"/><stop offset=".799" stop-color="#6B6DB2"/><stop offset="1" stop-color="#2E3192"/></radialGradient><radialGradient id="paint36_radial_56_181" cx="0" cy="0" r="1" gradientUnits="userSpaceOnUse" gradientTransform="matrix(-.17026 0 0 -.17106 17.66 21.32)"><stop stop-color="#fff"/><stop offset=".103" stop-color="#F9F9FC"/><stop offset=".247" stop-color="#E7E7F2"/><stop offset=".414" stop-color="#C9CAE3"/><stop offset=".599" stop-color="#A0A1CD"/><stop offset=".799" stop-color="#6B6DB2"/><stop offset="1" stop-color="#2E3192"/></radialGradient><radialGradient id="paint37_radial_56_181" cx="0" cy="0" r="1" gradientUnits="userSpaceOnUse" gradientTransform="matrix(-.18836 0 0 -.18924 46.58 29.498)"><stop stop-color="#fff"/><stop offset=".994" stop-color="#fff"/></radialGradient><radialGradient id="paint38_radial_56_181" cx="0" cy="0" r="1" gradientUnits="userSpaceOnUse" gradientTransform="matrix(-.32508 0 0 -.3266 46.582 29.515)"><stop stop-color="#fff"/><stop offset=".103" stop-color="#F9F9FC"/><stop offset=".247" stop-color="#E7E7F2"/><stop offset=".414" stop-color="#C9CAE3"/><stop offset=".599" stop-color="#A0A1CD"/><stop offset=".799" stop-color="#6B6DB2"/><stop offset="1" stop-color="#2E3192"/></radialGradient><radialGradient id="paint39_radial_56_181" cx="0" cy="0" r="1" gradientUnits="userSpaceOnUse" gradientTransform="matrix(-.17037 0 0 -.17117 46.582 29.515)"><stop stop-color="#fff"/><stop offset=".103" stop-color="#F9F9FC"/><stop offset=".247" stop-color="#E7E7F2"/><stop offset=".414" stop-color="#C9CAE3"/><stop offset=".599" stop-color="#A0A1CD"/><stop offset=".799" stop-color="#6B6DB2"/><stop offset="1" stop-color="#2E3192"/></radialGradient><linearGradient id="paint0_linear_56_181" x1="37.106" y1="5.454" x2="37.106" y2="64.719" gradientUnits="userSpaceOnUse"><stop stop-color="#1A0D23"/><stop offset=".247" stop-color="#1A0D23"/><stop offset=".34" stop-color="#18162E"/><stop offset=".501" stop-color="#142E4A"/><stop offset=".711" stop-color="#0C5678"/><stop offset=".96" stop-color="#028CB7"/><stop offset="1" stop-color="#0095C2"/></linearGradient><linearGradient id="paint40_linear_56_181" x1="28.428" y1="17.603" x2="15.261" y2="38.929" gradientUnits="userSpaceOnUse"><stop offset="0" stop-color="#F0F0F0"/><stop offset=".893" stop-color="#CBCBCB"/><stop offset="1" stop-color="#C6C6C6"/></linearGradient><clipPath id="clip0_56_181"><path fill="#fff" transform="translate(9.673 15.631)" d="M0 0h24.873v25.579H0z"/></clipPath></defs></svg>