<svg width="232" height="210" fill="none" xmlns="http://www.w3.org/2000/svg"><path d="M0 51.3c0-5.851 0-8.776.272-11.238C2.584 19.119 19.119 2.584 40.062.272 42.524 0 45.449 0 51.3 0h129.4c5.851 0 8.777 0 11.238.272 20.943 2.312 37.478 18.847 39.79 39.79.272 2.462.272 5.387.272 11.238v107.4c0 5.851 0 8.776-.272 11.238-2.312 20.943-18.847 37.478-39.79 39.79-2.461.272-5.387.272-11.238.272H51.3c-5.851 0-8.776 0-11.238-.272-20.943-2.312-37.478-18.847-39.79-39.79C0 167.476 0 164.551 0 158.7V51.3Z" fill="#183A58"/><g clip-path="url('#clip0_48_98')"><path d="M78.824 31H38.168C32.01 31 27.02 36.211 27.02 42.64v40.807c0 6.428 4.991 11.64 11.148 11.64h40.656c6.156 0 11.147-5.212 11.147-11.64V42.64c0-6.429-4.99-11.64-11.147-11.64Z" fill="#001E36"/><path d="M41.195 75.942V47.766c0-.206.085-.309.254-.309.45 0 .86-.007 1.48-.022a751.678 751.678 0 0 1 4.286-.088c.803-.015 1.598-.022 2.386-.022 2.14 0 3.941.279 5.406.837a9.318 9.318 0 0 1 3.526 2.25 8.675 8.675 0 0 1 1.921 3.108 10.72 10.72 0 0 1 .592 3.55c0 2.352-.521 4.292-1.563 5.82a8.879 8.879 0 0 1-4.223 3.329c-1.774.69-3.745.925-5.912.925-.62 0-1.056-.007-1.31-.022a21.944 21.944 0 0 0-1.14-.022v8.797a.365.365 0 0 1-.095.298.333.333 0 0 1-.284.1H41.49c-.198 0-.296-.118-.296-.353ZM46.9 52.748v9.19c.365.03.703.044 1.013.044h1.394a9.52 9.52 0 0 0 3.02-.503 4.539 4.539 0 0 0 2.153-1.455c.549-.676.823-1.617.823-2.822a4.612 4.612 0 0 0-.612-2.425 3.979 3.979 0 0 0-1.837-1.566 7.532 7.532 0 0 0-3.083-.55c-.676 0-1.274.006-1.795.021-.52.015-.88.037-1.076.066ZM77.374 60.267a9.602 9.602 0 0 0-2.513-.926 12.81 12.81 0 0 0-2.935-.353 5.244 5.244 0 0 0-1.584.199c-.328.076-.62.271-.823.55-.138.225-.211.485-.211.75.007.258.096.506.253.706.247.301.548.549.887.728.602.338 1.222.64 1.858.904a18.084 18.084 0 0 1 4.033 2.006 6.295 6.295 0 0 1 2.07 2.27c.419.876.629 1.844.611 2.823a6.543 6.543 0 0 1-1.013 3.637 6.727 6.727 0 0 1-2.935 2.447c-1.281.588-2.865.882-4.75.882a16.479 16.479 0 0 1-3.57-.352 11.044 11.044 0 0 1-2.68-.882.559.559 0 0 1-.222-.22.592.592 0 0 1-.075-.31v-4.761a.269.269 0 0 1 .021-.137.256.256 0 0 1 .085-.106.197.197 0 0 1 .232.022 11.01 11.01 0 0 0 3.252 1.345c1.009.264 2.043.404 3.083.419.985 0 1.71-.133 2.175-.397.21-.1.387-.262.51-.465.124-.204.189-.44.187-.681 0-.382-.212-.75-.634-1.103-.422-.353-1.28-.779-2.576-1.279A15.283 15.283 0 0 1 66.373 66a6.642 6.642 0 0 1-1.985-2.315 6.304 6.304 0 0 1-.613-2.8 6.532 6.532 0 0 1 .887-3.307 6.54 6.54 0 0 1 2.745-2.513c1.239-.646 2.787-.97 4.646-.97 1.088-.01 2.175.072 3.251.242.78.104 1.541.319 2.264.64a.38.38 0 0 1 .154.09.403.403 0 0 1 .1.152c.028.108.042.22.042.331v4.453a.307.307 0 0 1-.03.15.293.293 0 0 1-.097.115.394.394 0 0 1-.363 0Z" fill="#31A8FF"/></g><g clip-path="url('#clip1_48_98')"><path d="M194.01 115.216h-40.656c-6.157 0-11.148 5.211-11.148 11.639v40.808c0 6.428 4.991 11.639 11.148 11.639h40.656c6.157 0 11.148-5.211 11.148-11.639v-40.808c0-6.428-4.991-11.639-11.148-11.639Z" fill="#00005B"/><path d="M167.496 153.558h-9.755l-1.985 6.45a.52.52 0 0 1-.185.294.486.486 0 0 1-.322.103h-4.941c-.282 0-.38-.162-.295-.485l8.446-25.293c.084-.264.168-.523.253-.861.11-.589.167-1.187.169-1.786a.278.278 0 0 1 .176-.298.253.253 0 0 1 .119-.011h6.715c.197 0 .309.074.338.221l9.586 28.072c.084.294 0 .441-.253.441h-5.49a.376.376 0 0 1-.267-.071.41.41 0 0 1-.156-.238l-2.153-6.538Zm-8.235-5.438h6.672c-.169-.588-.366-1.249-.591-1.984-.226-.735-.465-1.521-.718-2.359l-.76-2.514a88.142 88.142 0 0 1-.697-2.425c-.211-.778-.401-1.491-.57-2.138h-.042a37.044 37.044 0 0 1-.887 3.527 1380.7 1380.7 0 0 0-1.204 4.057c-.408 1.382-.809 2.66-1.203 3.836ZM191.356 151.047h-8.319c.101.86.375 1.688.802 2.43a4.386 4.386 0 0 0 1.921 1.653 7.718 7.718 0 0 0 3.358.687 14.512 14.512 0 0 0 2.723-.312 9.7 9.7 0 0 0 2.342-.637c.141-.117.211-.044.211.22v4.189a.674.674 0 0 1-.063.331.61.61 0 0 1-.19.198 10.38 10.38 0 0 1-2.616.814c-1.225.24-2.47.351-3.717.331-1.999 0-3.674-.324-5.025-.97a9.019 9.019 0 0 1-3.294-2.602 10.343 10.343 0 0 1-1.816-3.593 14.766 14.766 0 0 1-.549-3.991 14.439 14.439 0 0 1 .655-4.343 11.494 11.494 0 0 1 1.964-3.748 9.513 9.513 0 0 1 3.167-2.602c1.238-.631 2.702-.858 4.392-.858a9.177 9.177 0 0 1 4.075.838 7.218 7.218 0 0 1 2.766 2.181 10.156 10.156 0 0 1 1.562 3.109c.333 1.083.504 2.213.507 3.351 0 .647-.021 1.235-.063 1.763-.042.53-.078.912-.106 1.147a.402.402 0 0 1-.126.252.373.373 0 0 1-.254.101c-.169 0-.457.022-.866.066-.408.044-.915.073-1.52.088-.606.015-1.246-.093-1.921-.093Zm-8.319-4.016h5.532c.675 0 1.175-.008 1.499-.022a1.44 1.44 0 0 0 .612-.212v-.265a3.632 3.632 0 0 0-.169-1.014 3.6 3.6 0 0 0-1.304-1.86 3.345 3.345 0 0 0-2.116-.653 3.545 3.545 0 0 0-2.038.495 3.764 3.764 0 0 0-1.446 1.577 6.559 6.559 0 0 0-.57 1.954Z" fill="#99F"/></g><g clip-path="url('#clip2_48_98')"><path d="M153.354 31h40.656c6.164 0 11.148 5.204 11.148 11.64v40.807c0 6.436-4.984 11.64-11.148 11.64h-40.656c-6.164 0-11.148-5.204-11.148-11.64V42.64c0-6.436 4.984-11.64 11.148-11.64Z" fill="#00005B"/><path d="M157.157 75.943V47.76c0-.192.079-.301.263-.301.445 0 .865 0 1.468-.028.63-.027 1.286-.027 1.994-.054.708-.028 1.469-.028 2.282-.055.813-.028 1.6-.028 2.387-.028 2.151 0 3.934.274 5.403.85a9.307 9.307 0 0 1 3.515 2.245 8.785 8.785 0 0 1 1.915 3.122 10.91 10.91 0 0 1 .603 3.56c0 2.356-.525 4.3-1.574 5.834a9.038 9.038 0 0 1-4.223 3.342c-1.784.684-3.751.93-5.902.93-.629 0-1.049 0-1.311-.027s-.63-.027-1.128-.027v8.791a.338.338 0 0 1-.288.384h-5.089c-.21 0-.315-.11-.315-.356Zm5.718-23.197v9.202c.368.027.708.054 1.023.054h1.39a9.426 9.426 0 0 0 3.017-.492c.839-.247 1.574-.767 2.151-1.452.55-.685.813-1.616.813-2.821a4.671 4.671 0 0 0-.603-2.437c-.446-.712-1.076-1.26-1.837-1.561-.97-.411-2.019-.576-3.095-.548-.682 0-1.285 0-1.783.027-.525-.027-.892 0-1.076.027ZM180.659 54.334h4.59c.262 0 .472.191.551.438.079.22.131.438.157.685a9.223 9.223 0 0 1 .184 1.835 9.848 9.848 0 0 1 2.807-2.356 7.857 7.857 0 0 1 3.986-1.068c.184-.027.341.11.368.301v5.45c0 .22-.132.302-.42.302a10.945 10.945 0 0 0-2.833.274c-.761.164-1.495.41-2.203.74-.499.246-.971.574-1.338 1.012v13.968c0 .274-.105.383-.341.383H181a.366.366 0 0 1-.42-.328V60.688c0-.658 0-1.342-.026-2.054-.026-.712-.026-1.425-.052-2.137 0-.63-.053-1.232-.105-1.862-.027-.137.052-.274.183-.301 0-.028.053-.028.079 0Z" fill="#99F"/></g><g clip-path="url('#clip3_48_98')"><path d="M78.824 115.216H38.168c-6.157 0-11.148 5.211-11.148 11.639v40.808c0 6.428 4.991 11.639 11.148 11.639h40.656c6.156 0 11.147-5.211 11.147-11.639v-40.808c0-6.428-4.99-11.639-11.147-11.639Z" fill="#300"/><path d="M57.525 153.676H47.77l-1.985 6.437a.518.518 0 0 1-.185.294.483.483 0 0 1-.322.103h-4.94c-.282 0-.38-.162-.296-.485l8.446-25.398c.084-.264.169-.566.253-.904a9.84 9.84 0 0 0 .17-1.786.281.281 0 0 1 .073-.231.255.255 0 0 1 .222-.077h6.714c.197 0 .31.073.338.22l9.586 28.22c.085.294 0 .441-.253.441h-5.49a.376.376 0 0 1-.267-.071.407.407 0 0 1-.155-.238l-2.154-6.525Zm-8.235-5.556h6.673a118.83 118.83 0 0 0-.592-1.984c-.225-.735-.465-1.521-.717-2.359l-.76-2.514a87.758 87.758 0 0 1-.697-2.425c-.212-.778-.402-1.491-.57-2.138h-.043a36.923 36.923 0 0 1-.887 3.527c-.394 1.323-.795 2.675-1.203 4.057-.409 1.382-.81 2.66-1.204 3.836ZM71.545 136.303c-.43.018-.86-.059-1.26-.227-.4-.167-.763-.42-1.063-.743a3.523 3.523 0 0 1-.683-1.165 3.63 3.63 0 0 1-.204-1.349 3.359 3.359 0 0 1 .225-1.329 3.241 3.241 0 0 1 1.806-1.837 3.129 3.129 0 0 1 1.263-.229c1.014 0 1.81.316 2.386.948.292.328.518.714.667 1.134.148.419.216.866.199 1.313.018.461-.054.921-.21 1.353a3.479 3.479 0 0 1-.698 1.161 3.227 3.227 0 0 1-1.117.75 3.118 3.118 0 0 1-1.311.22Zm-2.914 23.766v-21.077c0-.264.112-.397.338-.397h5.194c.225 0 .338.133.338.397v21.077c0 .294-.113.441-.338.441h-5.152c-.253 0-.38-.147-.38-.441Z" fill="#FF9A00"/></g><defs><clipPath id="clip0_48_98"><path fill="#fff" transform="translate(27.02 31)" d="M0 0h62.951v64.087H0z"/></clipPath><clipPath id="clip1_48_98"><path fill="#fff" transform="translate(142.206 115.216)" d="M0 0h62.951v64.087H0z"/></clipPath><clipPath id="clip2_48_98"><path fill="#fff" transform="translate(142.206 31)" d="M0 0h62.951v64.087H0z"/></clipPath><clipPath id="clip3_48_98"><path fill="#fff" transform="translate(27.02 115.216)" d="M0 0h62.951v64.087H0z"/></clipPath></defs></svg>