<svg width="249" height="210" fill="none" xmlns="http://www.w3.org/2000/svg"><path d="M0 51.3c0-5.851 0-8.776.272-11.238C2.584 19.119 19.119 2.584 40.062.272 42.524 0 45.449 0 51.3 0h146.4c5.851 0 8.776 0 11.238.272 20.943 2.312 37.478 18.847 39.79 39.79.272 2.462.272 5.387.272 11.238v107.4c0 5.851 0 8.776-.272 11.238-2.312 20.943-18.847 37.478-39.79 39.79-2.462.272-5.387.272-11.238.272H51.3c-5.851 0-8.776 0-11.238-.272-20.943-2.312-37.478-18.847-39.79-39.79C0 167.476 0 164.551 0 158.7V51.3Z" fill="#183A58"/></svg>