<svg width="18" height="17" fill="none" xmlns="http://www.w3.org/2000/svg"><path opacity=".3" d="M0 1.975C0 1.402.203.93.608.558 1.014.186 1.541 0 2.19 0c.637 0 1.153.183 1.547.55.405.377.608.87.608 1.476 0 .55-.197 1.008-.591 1.374-.405.378-.938.567-1.599.567h-.017C1.5 3.967.985 3.777.591 3.4.197 3.022 0 2.547 0 1.975ZM.226 17V5.53h3.857V17H.226Zm5.994 0h3.857v-6.405c0-.4.047-.71.14-.927.161-.39.407-.719.738-.988.33-.269.744-.403 1.242-.403 1.297 0 1.946.864 1.946 2.593V17H18v-6.577c0-1.694-.405-2.98-1.216-3.855-.811-.876-1.882-1.313-3.214-1.313-1.495 0-2.659.635-3.493 1.906v.034h-.017l.017-.034V5.529H6.22c.023.367.035 1.506.035 3.417 0 1.912-.012 4.597-.035 8.054Z" fill="#fff"/></svg>