<svg width="31" height="47" fill="none" xmlns="http://www.w3.org/2000/svg"><g clip-path="url('#clip0_1_133')"><path d="M7.818 46.606a7.646 7.646 0 0 0 7.644-7.644V31.32H7.818a7.646 7.646 0 0 0-7.643 7.643 7.646 7.646 0 0 0 7.643 7.644Z" fill="#0ACF83"/><path d="M.175 23.675a7.646 7.646 0 0 1 7.643-7.643h7.644v15.287H7.818a7.646 7.646 0 0 1-7.643-7.644Z" fill="#621BBB"/><path d="M.175 8.388A7.646 7.646 0 0 1 7.818.745h7.644v15.287H7.818A7.646 7.646 0 0 1 .175 8.388Z" fill="#F24E1E"/><path d="M15.462.745h7.643a7.646 7.646 0 0 1 7.644 7.643 7.646 7.646 0 0 1-7.643 7.644h-7.644V.745Z" fill="#FF7262"/><path d="M30.749 23.675a7.646 7.646 0 0 1-7.643 7.644 7.646 7.646 0 0 1-7.644-7.644 7.646 7.646 0 0 1 7.643-7.643 7.646 7.646 0 0 1 7.644 7.643Z" fill="#1ABCFE"/></g><defs><clipPath id="clip0_1_133"><path fill="#fff" transform="translate(.175 .745)" d="M0 0h30.574v45.861H0z"/></clipPath></defs></svg>